<svg xmlns="http://www.w3.org/2000/svg" width="140" height="28" viewBox="0 0 140 28" fill="none">
<path d="M32.7064 7.29082H35.2847V8.99112C36.1618 7.71991 37.6427 7.08435 39.7355 7.08435C42.0854 7.08435 43.6275 7.90213 44.37 9.54175C45.2145 7.90213 46.8545 7.08435 49.29 7.08435C51.1544 7.08435 52.5129 7.56203 53.3737 8.52155C54.2345 9.47702 54.6629 11.0032 54.6629 13.0922V20.8773H52.0846V13.0922C52.0846 11.8413 51.8073 10.9222 51.2647 10.3514C50.7221 9.77653 49.8694 9.48504 48.7108 9.48504C47.3809 9.48504 46.4262 9.84938 45.8429 10.57C45.2636 11.2946 44.9739 12.4606 44.9739 14.084V20.8772H42.3957V13.0921C42.3957 11.8412 42.1183 10.9221 41.5757 10.3513C41.0331 9.77644 40.1805 9.48494 39.0178 9.48494C37.6878 9.48494 36.7332 9.84929 36.1499 10.5699C35.5706 11.2945 35.2809 12.4605 35.2809 14.0839V20.8772H32.7026V7.29063H32.7067L32.7064 7.29082Z" fill="#eef7f0"/>
<path d="M58.5139 27.4074V7.29073H61.0922V9.1975C62.055 7.78465 63.7602 7.0802 66.1957 7.0802C68.3947 7.0802 69.9857 7.63479 70.9811 8.74001C71.9684 9.84523 72.462 11.6265 72.462 14.0799C72.462 16.5211 71.9684 18.2943 70.9811 19.4117C69.9857 20.5251 68.3947 21.0837 66.1957 21.0837C63.7602 21.0837 62.0549 20.3752 61.0922 18.9664V27.4034H58.5139V27.4074ZM62.1856 17.5981C62.8791 18.3228 63.9928 18.6791 65.5145 18.6791C67.0444 18.6791 68.1581 18.3188 68.8516 17.5981C69.5451 16.8735 69.8878 15.7034 69.8878 14.08C69.8878 12.4809 69.5451 11.3109 68.8516 10.5782C68.1581 9.84543 67.0444 9.48108 65.5145 9.48108C63.9928 9.48108 62.8791 9.84948 62.1856 10.5782C61.492 11.3109 61.1412 12.4769 61.1412 14.08C61.1412 15.7034 61.492 16.8775 62.1856 17.5981Z" fill="#eef7f0"/>
<path d="M74.8855 16.7479H77.4434C77.6759 17.4807 78.1125 18.011 78.757 18.3389C79.4097 18.6709 80.3318 18.8369 81.5189 18.8369C83.8606 18.8369 85.0233 18.2782 85.0233 17.1649C85.0233 16.6588 84.7133 16.2621 84.0768 15.9625C83.4486 15.6669 82.4287 15.4119 81.0253 15.2054C78.8591 14.9261 77.3373 14.4686 76.4562 13.833C75.5708 13.1974 75.1262 12.2622 75.1262 11.0234C75.1262 9.69551 75.5872 8.70777 76.5214 8.05589C77.4515 7.40004 78.9161 7.07617 80.9151 7.07617C82.9222 7.07617 84.4276 7.42033 85.4475 8.10854C86.4674 8.79676 87.0957 9.89792 87.3445 11.4161H84.7948C84.5623 10.6833 84.1421 10.153 83.5301 9.82101C82.9182 9.49309 82.0247 9.3271 80.8702 9.3271C78.712 9.3271 77.631 9.85744 77.631 10.9181C77.631 11.408 77.941 11.7967 78.5531 12.0801C79.165 12.3675 80.136 12.6185 81.474 12.825C83.7341 13.1731 85.313 13.6428 86.1942 14.2339C87.0876 14.825 87.5242 15.7318 87.5242 16.9504C87.5242 19.7034 85.5007 21.0798 81.4496 21.0798C79.4261 21.0798 77.8922 20.7317 76.8397 20.0313C75.7831 19.3471 75.1303 18.246 74.8855 16.748V16.7479Z" fill="#eef7f0"/>
<path d="M94.1901 7.29076H98.3228V9.69144H94.1901V16.0677C94.1901 16.9058 94.3982 17.513 94.8021 17.8976C95.2141 18.2822 95.8832 18.4724 96.7929 18.4724H98.4819V20.8731H96.748C94.9326 20.8731 93.6272 20.5169 92.8234 19.8043C92.0116 19.0878 91.6118 17.938 91.6118 16.355V9.69134H89.3435V7.29066H91.6118V4.31104H94.19V7.29066L94.1901 7.29076Z" fill="#eef7f0"/>
<path d="M105.825 21.0879C104.002 21.0879 102.663 20.764 101.819 20.1203C100.974 19.4767 100.562 18.4402 100.562 17.0111C100.562 15.5294 101.032 14.4728 101.97 13.8372C102.9 13.2017 104.422 12.8818 106.506 12.8818H111.165C111.165 11.647 110.855 10.7442 110.219 10.1815C109.591 9.61064 108.579 9.33131 107.192 9.33131C106.086 9.33131 105.233 9.50948 104.638 9.86571C104.042 10.226 103.634 10.7928 103.426 11.5782H100.868C101.117 10.0155 101.745 8.87382 102.765 8.1573C103.785 7.44077 105.299 7.0885 107.298 7.0885C109.542 7.0885 111.182 7.54599 112.21 8.46087C113.238 9.37585 113.748 10.8332 113.748 12.8372V20.8855H111.169V19.1366C110.133 20.4361 108.35 21.0879 105.825 21.0879ZM103.141 16.9058C103.141 17.5859 103.402 18.0758 103.944 18.3795C104.479 18.6871 105.307 18.8369 106.429 18.8369C107.918 18.8369 109.04 18.5698 109.791 18.0273C110.533 17.4848 110.994 16.6265 111.17 15.4403V14.8168H107.172C104.479 14.8168 103.141 15.5132 103.141 16.9058H103.141Z" fill="#eef7f0"/>
<path d="M121.21 7.29076H125.342V9.69144H121.21V16.0677C121.21 16.9058 121.418 17.513 121.821 17.8976C122.233 18.2822 122.903 18.4724 123.812 18.4724H125.501V20.8731H123.767C121.952 20.8731 120.647 20.5169 119.843 19.8043C119.031 19.0878 118.631 17.938 118.631 16.355V9.69134H116.363V7.29066H118.631V4.31104H121.209V7.29066L121.21 7.29076Z" fill="#eef7f0"/>
<path d="M127.361 16.7479H129.919C130.152 17.4807 130.588 18.011 131.233 18.3389C131.886 18.6709 132.808 18.8369 133.995 18.8369C136.336 18.8369 137.499 18.2782 137.499 17.1649C137.499 16.6588 137.189 16.2621 136.553 15.9625C135.924 15.6669 134.905 15.4119 133.501 15.2054C131.335 14.9261 129.813 14.4686 128.932 13.833C128.047 13.1974 127.602 12.2622 127.602 11.0234C127.602 9.69551 128.063 8.70777 128.997 8.05589C129.927 7.40004 131.392 7.07617 133.391 7.07617C135.398 7.07617 136.903 7.42033 137.923 8.10854C138.943 8.79676 139.572 9.89792 139.82 11.4161H137.271C137.038 10.6833 136.618 10.153 136.006 9.82101C135.394 9.49309 134.501 9.3271 133.346 9.3271C131.188 9.3271 130.107 9.85744 130.107 10.9181C130.107 11.408 130.417 11.7967 131.029 12.0801C131.641 12.3675 132.612 12.6185 133.95 12.825C136.21 13.1731 137.789 13.6428 138.67 14.2339C139.563 14.825 140 15.7318 140 16.9504C140 19.7034 137.977 21.0798 133.925 21.0798C131.902 21.0798 130.368 20.7317 129.315 20.0313C128.263 19.3471 127.61 18.246 127.361 16.748V16.7479Z" fill="#eef7f0"/>
<path d="M19.5006 18.173L1.61963 27.8649C0.889409 28.2616 0 27.7353 0 26.9094V7.5336C0 6.70771 0.889312 6.18548 1.61963 6.57814C1.97043 6.76838 2.19076 7.13679 2.19076 7.5336V18.7032C2.19076 19.5291 3.08416 20.0554 3.81448 19.6546L14.2093 13.9706C14.5357 13.7925 14.9355 13.7925 15.2618 13.9666L19.4964 16.258C20.2633 16.679 20.2633 17.764 19.5005 18.1729L19.5006 18.173Z" fill="url(#paint0_linear_1082_23573)"/>
<path d="M18.1259 7.33132C18.8439 7.75239 18.8439 8.7807 18.1259 9.20167L12.6265 12.4323L12.5368 12.485L5.91152 16.3796C5.1813 16.8087 4.25928 16.2864 4.25928 15.4444V1.08869C4.25928 0.24666 5.1813 -0.27566 5.91152 0.15352L18.1259 7.33142V7.33132Z" fill="url(#paint1_linear_1082_23573)"/>
<defs>
<linearGradient id="paint0_linear_1082_23573" x1="10.0361" y1="6.44495" x2="10.0361" y2="27.9997" gradientUnits="userSpaceOnUse">
<stop stop-color="#33B058"/>
<stop offset="1" stop-color="#E2F90E"/>
</linearGradient>
<linearGradient id="paint1_linear_1082_23573" x1="11.4618" y1="0.00012207" x2="11.4618" y2="16.533" gradientUnits="userSpaceOnUse">
<stop stop-color="#33B058"/>
<stop offset="1" stop-color="#E2F90E"/>
</linearGradient>
</defs>
</svg>